<svg width="109" height="56" viewBox="0 0 109 56" fill="none" xmlns="http://www.w3.org/2000/svg">
<g clip-path="url(#clip0_24_5)">
<path d="M53.5232 0.0248129C45.9876 0.580177 39.7371 5.26266 37.3196 12.1557C36.6227 14.1485 36.3613 15.6839 36.296 18.2538C36.2524 19.9199 36.2742 20.6168 36.4158 21.5207C36.9058 24.6133 37.7987 26.9219 39.4757 29.4264C42.5574 34.0109 47.4359 36.7986 53.338 37.3322C58.3254 37.7678 63.7048 35.6988 67.5162 31.8657C69.0189 30.3629 69.9118 29.0889 70.8374 27.1505C72.0897 24.5153 72.7431 21.88 72.7431 19.4517C72.7431 18.3845 72.5798 17.8836 72.068 17.4153C70.9681 16.3808 68.7793 16.7837 68.2457 18.1123C68.1586 18.3409 68.0497 18.9943 68.0062 19.5606C67.7231 23.459 66.155 26.7476 63.4544 29.1215C61.1567 31.147 58.6412 32.2359 55.5704 32.5408C53.0985 32.7804 50.975 32.3775 48.6229 31.2123C46.0965 29.96 44.2344 28.1959 42.8188 25.724C39.149 19.321 41.0982 10.9034 47.1528 6.9832C49.1891 5.66557 51.9551 4.75085 53.9152 4.75085C54.8734 4.75085 55.5268 4.54395 56.0277 4.08659C56.594 3.5639 56.7791 3.03031 56.7138 2.09382C56.6811 1.52756 56.6049 1.28799 56.3544 0.928641C55.8099 0.155487 55.0477 -0.0840821 53.5232 0.0248129Z" fill="#101828"/>
<path d="M53.5232 8.89979C51.0839 9.04135 49.1565 9.93429 47.3161 11.7746C45.8243 13.2665 44.9749 14.7801 44.4631 16.7947C44.2018 17.851 44.2018 20.4318 44.4631 21.4118C44.8987 23.0452 45.8025 24.7549 46.5974 25.4518C47.6537 26.3883 48.9278 26.3774 49.8425 25.4192C50.3108 24.94 50.5285 24.3738 50.5285 23.6768C50.5285 23.1759 50.4632 22.9799 50.0276 22.283C48.3724 19.6259 48.5684 17.1867 50.5939 15.1286C52.7282 12.9507 55.407 12.9398 58.173 15.0959L58.4561 15.3137L58.4017 14.8999C58.2819 14.0396 58.859 12.8853 59.6322 12.4062C60.1875 12.0795 61.124 12.0577 61.7665 12.3735C62.017 12.4933 62.2456 12.5913 62.2783 12.5913C62.4743 12.5913 60.7865 11.0668 60.0569 10.5768C58.1294 9.29181 56.0386 8.74734 53.5232 8.89979Z" fill="#101828"/>
<path d="M53.1418 42.0366C51.639 42.3524 51.5628 42.385 51.5301 42.6464C51.4975 42.9077 51.5193 42.9186 52.0637 42.875C52.5211 42.8533 52.6627 42.8859 52.7824 43.0384C52.8913 43.1908 52.924 44.3669 52.924 48.788C52.924 54.8317 52.924 54.8099 52.3251 54.9951C51.8242 55.1366 51.6717 55.2346 51.6717 55.398C51.6717 55.5178 52.0964 55.5504 54.0021 55.5831C56.4086 55.6049 56.8116 55.5504 56.3651 55.2128C56.2453 55.1257 56.0384 55.0604 55.9077 55.0604C55.7771 55.0604 55.5593 54.9297 55.4395 54.7773C55.2108 54.4941 55.2108 54.3961 55.2108 48.2653C55.2108 44.846 55.1672 41.993 55.1237 41.9277C54.9712 41.699 54.6881 41.7099 53.1418 42.0366Z" fill="#101828"/>
<path d="M17.6203 42.5592C17.5114 42.6355 16.5205 45.0747 15.3989 47.9822C14.2881 50.8897 13.2754 53.4378 13.1665 53.6556C12.7309 54.5159 12.3934 54.7773 11.4133 54.995C11.1846 55.0495 11.1084 55.1257 11.1084 55.3326V55.6049H13.5585H16.0087V55.3435C16.0087 55.0495 15.8344 54.9515 15.29 54.9515C14.789 54.9515 14.3752 54.5486 14.3752 54.0586C14.3752 53.8734 14.5277 53.2309 14.7237 52.6429L15.0722 51.5757L17.1956 51.5975L19.3191 51.6302L19.7764 52.7736C20.4407 54.3961 20.408 54.9515 19.6458 54.9515C19.1231 54.9515 18.9488 55.0495 18.9488 55.3435V55.6049H21.7801H24.6114V55.3435C24.6114 55.0822 24.4371 54.9515 24.0669 54.9515C23.7075 54.9515 23.3591 54.7337 23.0868 54.3417C22.9453 54.1239 21.8345 51.3688 20.6258 48.2218C18.4697 42.5919 18.4152 42.483 18.1103 42.4503C17.947 42.4286 17.7183 42.483 17.6203 42.5592ZM18.0777 48.3633C18.5568 49.6047 18.9488 50.661 18.9488 50.7155C18.9488 50.7699 18.143 50.8135 17.1412 50.8135C15.7364 50.8135 15.3444 50.7808 15.3771 50.6719C15.4097 50.6066 15.7909 49.4632 16.2265 48.1564C16.7927 46.4468 17.0432 45.8261 17.1085 45.9459C17.163 46.0439 17.5985 47.1328 18.0777 48.3633Z" fill="#101828"/>
<path d="M34.7497 42.6027C33.3558 42.973 32.4737 43.5828 31.9728 44.4975C31.6897 45.0202 31.6679 45.14 31.7115 45.9567C31.7659 46.9912 31.9293 47.3506 32.6915 48.1564C33.2578 48.7553 33.8023 49.1364 35.7406 50.2798C37.3849 51.2381 37.9947 51.8806 38.169 52.7953C38.2778 53.3507 38.0709 53.8951 37.57 54.3416C36.5682 55.2454 35.0437 55.1257 33.8023 54.0258C33.4865 53.7645 32.9311 53.0675 32.55 52.5013C32.0164 51.6737 31.8204 51.4668 31.6461 51.4886C31.4501 51.5212 31.4175 51.6083 31.3848 52.229C31.3412 53.0458 31.5264 54.1238 31.7659 54.4941C31.9619 54.8207 33.2905 55.4523 34.0854 55.6157C35.0001 55.8008 36.7533 55.7681 37.5591 55.5503C38.8768 55.2128 39.7479 54.6247 40.2162 53.7862C40.5864 53.1002 40.6735 52.5231 40.5211 51.7717C40.2271 50.3778 39.3341 49.474 37.1127 48.2979C35.4248 47.4159 34.619 46.817 34.2487 46.1963C33.628 45.14 34.0309 43.8224 35.0981 43.4194C35.5337 43.2561 36.4266 43.267 36.8622 43.4521C37.3849 43.6699 38.2016 44.4648 38.8332 45.3687C39.1272 45.7825 39.4212 46.1309 39.4866 46.1309C39.541 46.1309 39.6826 46.0656 39.7806 45.9894C39.9548 45.8696 39.9657 45.7607 39.8568 44.8351C39.7915 44.2688 39.6826 43.6808 39.6064 43.5283C39.443 43.1799 38.6917 42.7661 37.9076 42.5701C37.1127 42.3849 35.4901 42.4067 34.7497 42.6027Z" fill="#101828"/>
<path d="M0.589319 42.6464C0.327971 42.7444 0.13196 43.4849 0.0339545 44.7371C-0.0313825 45.5539 -0.020493 45.5865 0.229965 45.6736C0.469534 45.7716 0.513092 45.7281 0.78533 45.1618C1.16646 44.3778 1.6456 43.8115 2.11385 43.5829C2.48409 43.4086 4.0304 43.3324 4.41153 43.474C4.87978 43.6591 4.90156 43.8878 4.90156 49.2345V54.3199L4.58576 54.6357C4.36797 54.8426 4.15018 54.9515 3.94328 54.9515C3.44237 54.9515 3.26813 55.0604 3.26813 55.3435V55.6049H6.0994H8.93067V55.3435C8.93067 55.0713 8.75644 54.9515 8.32086 54.9515C7.92884 54.9515 7.64571 54.7773 7.46059 54.407C7.31903 54.1348 7.29725 53.3398 7.29725 49.0712V44.0402L7.61304 43.7244C7.91795 43.4304 7.98329 43.4086 8.82178 43.4086C9.3118 43.4086 9.85628 43.474 10.0523 43.5611C10.4988 43.7462 11.0432 44.3669 11.4135 45.1074C11.5986 45.4994 11.7619 45.6954 11.8926 45.6954C12.2302 45.6954 12.2955 45.2816 12.1322 44.1709C12.056 43.6046 11.9906 43.1037 11.9797 43.0493C11.9797 43.0057 11.8817 42.875 11.7619 42.7553C11.555 42.5484 11.4026 42.5375 6.18652 42.5484C3.23547 42.5484 0.719993 42.5919 0.589319 42.6464Z" fill="#101828"/>
<path d="M77.0334 42.7116C76.4127 42.9185 76.1187 43.3432 76.1187 44.0075C76.1187 44.6826 76.3256 44.9984 76.87 45.1509C77.8392 45.4122 78.7321 44.7589 78.7321 43.7788C78.7321 42.9077 77.9372 42.4067 77.0334 42.7116Z" fill="#101828"/>
<path d="M71.1098 44.2144C71.1098 44.2907 70.9355 44.7045 70.7177 45.1292C70.2713 46.033 69.7921 46.4795 68.8992 46.8061C68.431 46.9695 68.2567 47.1002 68.2132 47.2853C68.0934 47.7644 68.2241 47.8733 68.8774 47.8733H69.4763V50.5195C69.4763 53.4052 69.5744 54.113 70.0862 54.8535C70.6851 55.7355 71.9918 56.0078 73.1243 55.5068C74.1044 55.0713 74.7251 54.2219 74.3657 53.7972C74.2459 53.6556 74.1915 53.6774 73.8975 53.9496C73.4619 54.3634 73.157 54.5159 72.7541 54.5159C72.2749 54.5159 72.1007 54.4179 71.8938 54.0368C71.7414 53.7536 71.7087 53.2854 71.676 50.7808L71.6325 47.8733H72.6343C73.8321 47.8733 74.0499 47.7862 74.0499 47.2744V46.8933H72.8521H71.6542V45.4776V44.062H71.382C71.2296 44.062 71.1098 44.1273 71.1098 44.2144Z" fill="#101828"/>
<path d="M76.7177 46.9586C76.0643 47.1002 75.4109 47.2417 75.2802 47.2744C75.106 47.318 75.0298 47.416 75.0298 47.6011C75.0298 47.8515 75.0516 47.8624 75.498 47.808C75.8138 47.7644 76.0207 47.7971 76.1732 47.906C76.3801 48.0693 76.391 48.2218 76.4236 50.9986C76.4454 52.5994 76.4345 54.0694 76.391 54.2546C76.3039 54.7555 76.097 54.9733 75.6178 55.0495C75.2911 55.1039 75.1931 55.1693 75.1931 55.3326C75.1931 55.5395 75.2802 55.5504 77.567 55.5831C79.8647 55.6049 79.9301 55.6049 79.9301 55.3871C79.9301 55.2455 79.8321 55.1584 79.636 55.1039C79.0153 54.9733 78.852 54.8535 78.7431 54.4397C78.6669 54.1892 78.6233 52.6102 78.6233 50.4215C78.6233 47.2308 78.6015 46.7953 78.4491 46.7408C78.1986 46.6428 78.0462 46.6646 76.7177 46.9586Z" fill="#101828"/>
<path d="M45.0295 46.9259C43.8208 47.3288 42.8952 48.1455 42.3289 49.2889C41.9914 49.964 41.9805 50.0402 41.9805 51.3579C41.9805 52.6755 41.9914 52.7517 42.3289 53.4378C43.3634 55.5394 45.9551 56.367 48.2201 55.3325C49.9516 54.5376 50.9316 52.5557 50.6376 50.4758C50.4089 48.9077 49.712 47.9059 48.3835 47.2525C47.6321 46.8823 47.4688 46.8387 46.5105 46.817C45.8571 46.7952 45.3018 46.8387 45.0295 46.9259ZM46.663 47.6119C47.1094 47.8188 47.5123 48.3742 47.8281 49.2344C48.035 49.8007 48.0677 50.1165 48.0677 51.6846C48.0786 53.318 48.0568 53.5249 47.839 53.9931C47.4797 54.7772 47.1203 55.0603 46.4887 55.0603C46.0096 55.0603 45.9116 55.0167 45.5304 54.6356C44.7464 53.8516 44.3762 52.3379 44.4524 50.2907C44.5068 48.9513 44.6593 48.3742 45.1166 47.895C45.5522 47.4159 46.064 47.3288 46.663 47.6119Z" fill="#101828"/>
<path d="M84.1225 46.9259C82.206 47.5684 81.019 49.2562 81.019 51.347C81.019 52.6973 81.4982 53.9278 82.3367 54.701C82.8049 55.1366 83.8176 55.583 84.6235 55.7137C86.1153 55.9642 87.531 55.5177 88.5219 54.4614C90.6671 52.1964 90.0573 48.3742 87.3567 47.1328C86.8558 46.9041 86.54 46.8497 85.6471 46.817C84.9393 46.7952 84.4057 46.8388 84.1225 46.9259ZM85.9193 47.6991C86.7687 48.2653 87.2587 49.7463 87.2696 51.7391C87.2696 53.3071 87.0736 54.0912 86.5291 54.6683C86.2133 55.0059 86.1044 55.0603 85.6471 55.0603C85.0046 55.0603 84.6452 54.8099 84.2641 54.113C83.7196 53.1111 83.5781 52.4251 83.5781 50.7046C83.5781 49.2127 83.5999 49.0929 83.8721 48.5049C84.3512 47.4813 85.1462 47.1655 85.9193 47.6991Z" fill="#101828"/>
<path d="M92.8344 47.0566C92.2355 47.1873 91.5603 47.3397 91.3425 47.3724C90.994 47.4377 90.9287 47.4922 90.9287 47.7209C90.9287 47.9822 90.9505 47.9931 91.397 47.9278C91.789 47.8624 91.8979 47.8951 92.0721 48.0911C92.279 48.3198 92.2899 48.494 92.2899 51.358C92.2899 54.2655 92.279 54.407 92.0612 54.701C91.9088 54.897 91.7019 55.0277 91.4623 55.0604C91.1792 55.1039 91.0812 55.1693 91.0594 55.3544L91.0267 55.6049H93.3244H95.6221L95.5894 55.3544C95.5676 55.1693 95.4696 55.1039 95.1756 55.0604C94.5549 54.9733 94.5222 54.799 94.5222 51.7826V49.0929L95.0014 48.7009C95.5676 48.2436 95.9161 48.0911 96.4279 48.0911C96.9942 48.0911 97.3317 48.298 97.5713 48.7989C97.7673 49.2127 97.7891 49.4632 97.7891 51.8589C97.7891 54.799 97.7455 54.9733 97.1357 55.0604C96.8417 55.1039 96.7437 55.1693 96.7219 55.3544L96.6893 55.6049H98.9869H101.285L101.252 55.3544C101.23 55.1693 101.132 55.1039 100.882 55.0822C100.163 55.0168 100.141 54.9188 100.065 51.75C100.021 50.171 99.9343 48.7336 99.869 48.5158C99.6621 47.8406 99.2918 47.3942 98.6711 47.0784C97.5277 46.5121 96.1448 46.7517 95.0885 47.6991C94.8489 47.9169 94.6311 48.0911 94.5876 48.0911C94.5549 48.0911 94.5222 47.8515 94.5222 47.5684C94.5222 47.0239 94.3807 46.7735 94.0976 46.7953C93.9995 46.7953 93.4333 46.915 92.8344 47.0566Z" fill="#101828"/>
<path d="M104.671 46.9477C103.942 47.1546 103.746 47.2526 103.212 47.7426C102.646 48.2544 102.461 48.6464 102.461 49.3325C102.461 50.4868 102.983 51.151 104.66 52.0984C106.207 52.9696 106.609 53.3943 106.609 54.113C106.609 55.0059 105.64 55.3435 104.562 54.8317C104.072 54.5921 103.386 53.8189 103.005 53.0785C102.842 52.7518 102.733 52.6538 102.548 52.6864C102.319 52.7191 102.308 52.7627 102.341 53.5358C102.384 54.7228 102.504 54.995 103.049 55.2564C104.475 55.9315 106.403 55.9424 107.655 55.2999C108.167 55.0277 108.733 54.4614 108.885 54.0476C109.07 53.5685 109.027 52.8062 108.787 52.3489C108.537 51.8371 107.764 51.1401 106.947 50.6828C105.913 50.1056 104.987 49.3978 104.813 49.0711C104.388 48.2544 104.867 47.4377 105.76 47.4377C106.555 47.4377 106.98 47.7862 108.08 49.3651C108.156 49.4631 108.265 49.4849 108.395 49.4414C108.58 49.376 108.591 49.278 108.537 48.5049C108.45 47.4704 108.352 47.2744 107.829 47.0457C107.252 46.7952 105.412 46.7408 104.671 46.9477Z" fill="#101828"/>
<path d="M57.1058 47.0566C57.0187 47.2853 57.1493 47.4377 57.4325 47.4377C57.868 47.4377 58.173 47.7862 58.271 48.3742C58.3145 48.6682 58.3581 50.0294 58.369 51.4124C58.369 53.6121 58.4016 53.9714 58.5759 54.3525C59.0114 55.289 59.8173 55.7355 61.0913 55.7464C62.0061 55.7573 62.507 55.5613 63.3564 54.8752L63.8137 54.505V54.9406C63.8137 55.1693 63.8464 55.4415 63.8791 55.5395C63.9662 55.7682 64.4998 55.7573 65.6867 55.4959C67.3528 55.1366 67.5161 55.0713 67.5161 54.8426C67.5161 54.6575 67.4399 54.6248 66.9826 54.6248C66.0787 54.6248 66.1005 54.701 66.1005 50.6283C66.1005 47.2417 66.0896 47.111 65.8827 47.0021C65.752 46.9368 65.0769 46.9041 64.1731 46.915C62.7683 46.9477 62.6703 46.9586 62.6703 47.1655C62.6703 47.3179 62.7683 47.3942 63.0514 47.4486C63.8028 47.6119 63.8246 47.6773 63.7919 50.7917L63.7593 53.5794L63.2148 53.9932C62.2892 54.6901 61.2873 54.6466 60.7973 53.8952C60.6231 53.6338 60.6013 53.2636 60.5686 50.3125C60.536 47.0348 60.536 47.0239 60.2964 46.9586C60.1657 46.9259 59.4035 46.8932 58.6085 46.8932C57.4434 46.8932 57.1493 46.9259 57.1058 47.0566Z" fill="#101828"/>
</g>
<defs>
<clipPath id="clip0_24_5">
<rect width="109" height="55.7817" fill="white" transform="matrix(1 0 0 -1 0 55.7817)"/>
</clipPath>
</defs>
</svg>
